<?xml version="1.0" encoding="utf-8"?>
<!-- Generator: Adobe Illustrator 22.1.0, SVG Export Plug-In . SVG Version: 6.00 Build 0)  -->
<svg version="1.1" baseProfile="tiny" id="Capa_1" xmlns="http://www.w3.org/2000/svg" xmlns:xlink="http://www.w3.org/1999/xlink"
	 x="0px" y="0px" viewBox="0 0 455.9 455.9" xml:space="preserve">
<g>
	<path fill="none" stroke="#000000" stroke-width="10" stroke-miterlimit="10" d="M357.1,114.9c0,28.4-9,55.4-26.2,78
		c-28.9,38.1-44,82.6-44,128.8v33.7c-2,21-4.2,53.5-12.6,70.1h-91.6c-8.6-14.9-13.5-46.3-13.5-68.4v-35.3c0-45.6-15.6-91.3-44-128.6
		c-17.5-23-26.6-50.4-26.3-79.3c0.3-33.8,13.7-52.4,37.7-76.5c27.4-21.8,55.8-28.8,89.6-29.3c34.8-0.5,68.1,8.1,92.5,28.3
		C343.4,60.7,357.1,80.1,357.1,114.9z"/>
	<line fill="none" stroke="#000000" stroke-width="10" stroke-miterlimit="10" x1="107.8" y1="162.5" x2="348" y2="162.5"/>
	<line fill="none" stroke="#000000" stroke-width="10" stroke-miterlimit="10" x1="169.2" y1="340.4" x2="286.9" y2="340.4"/>
	<polyline fill="none" stroke="#000000" stroke-width="10" stroke-miterlimit="10" points="203.1,425.4 208.6,448 245.6,448 
		253.9,425.4 	"/>
	<line fill="none" stroke="#000000" stroke-width="10" stroke-miterlimit="10" x1="286.9" y1="355.3" x2="169.4" y2="365.3"/>
	<line fill="none" stroke="#000000" stroke-width="10" stroke-miterlimit="10" x1="171.5" y1="386.7" x2="285" y2="375.2"/>
	<line fill="none" stroke="#000000" stroke-width="10" stroke-miterlimit="10" x1="175.8" y1="407.4" x2="282.4" y2="395.8"/>
	<line fill="none" stroke="#000000" stroke-width="10" stroke-miterlimit="10" x1="203.1" y1="422.6" x2="278.7" y2="413.6"/>
</g>
</svg>
