<?xml version="1.0" standalone="no"?>
<!DOCTYPE svg PUBLIC "-//W3C//DTD SVG 20010904//EN"
 "http://www.w3.org/TR/2001/REC-SVG-20010904/DTD/svg10.dtd">
<svg version="1.0" xmlns="http://www.w3.org/2000/svg"
 width="168.000000pt" height="168.000000pt" viewBox="0 0 168.000000 168.000000"
 preserveAspectRatio="xMidYMid meet">
<g transform="translate(0.000000,168.000000) scale(0.100000,-0.100000)"
fill="#000000" stroke="none">
<path d="M210 1213 c-24 -30 -24 -81 0 -94 38 -22 563 -249 566 -246 5 4 -231
115 -388 182 -48 21 -85 42 -82 47 9 14 29 9 110 -28 44 -20 201 -92 349 -159
263 -119 666 -305 674 -312 28 -21 -32 -1 -145 48 -76 34 -211 92 -298 130
l-159 68 -29 -24 c-16 -14 -34 -25 -40 -25 -30 0 -118 -33 -118 -45 0 -7 11
-20 25 -29 39 -25 50 -55 55 -150 l5 -89 84 -29 c62 -22 86 -27 95 -18 20 21
12 160 -13 208 -12 24 -20 46 -18 49 8 7 41 6 60 -2 11 -5 17 -3 17 7 0 8 11
25 25 38 l25 23 217 -97 c227 -100 243 -105 263 -82 33 41 14 56 -210 163
-318 152 -507 243 -779 375 -271 131 -261 128 -291 91z"/>
<path d="M790 865 c0 -3 2 -5 5 -5 3 0 5 2 5 5 0 3 -2 5 -5 5 -3 0 -5 -2 -5
-5z"/>
</g>
</svg>
