<?xml version="1.0" encoding="UTF-8" standalone="no"?>
<svg
   viewBox="0 0 960 960"
   fill="none"
   stroke="#000"
   stroke-width="34"
   stroke-linecap="round"
   stroke-linejoin="round"
   version="1.1"
   id="svg7"
   sodipodi:docname="icon.svg"
   inkscape:version="1.3.2 (091e20e, 2023-11-25, custom)"
   xmlns:inkscape="http://www.inkscape.org/namespaces/inkscape"
   xmlns:sodipodi="http://sodipodi.sourceforge.net/DTD/sodipodi-0.dtd"
   xmlns="http://www.w3.org/2000/svg"
   xmlns:svg="http://www.w3.org/2000/svg">
  <defs
     id="defs7" />
  <sodipodi:namedview
     id="namedview7"
     pagecolor="#ffffff"
     bordercolor="#000000"
     borderopacity="0.25"
     inkscape:showpageshadow="2"
     inkscape:pageopacity="0.0"
     inkscape:pagecheckerboard="0"
     inkscape:deskcolor="#d1d1d1"
     inkscape:zoom="1.221875"
     inkscape:cx="479.59079"
     inkscape:cy="480"
     inkscape:window-width="3440"
     inkscape:window-height="1369"
     inkscape:window-x="-8"
     inkscape:window-y="-8"
     inkscape:window-maximized="1"
     inkscape:current-layer="svg7" />
  <path
     d="m 164.81841,392.02757 328,-118.33984 304,107.10504 -330,127.32767 z"
     id="path1"
     style="stroke-width:34" />
  <path
     d="M 164,398.67137 466,516.91581 796,387.22836 v 297.51828 c 0,48.06065 -38,92.30696 -97,112.90438 l -210,73.99814 c -22,7.62868 -48,6.8658 -69,-1.52573 L 222,790.78522 c -36,-14.49448 -58,-42.72057 -58,-73.99814 z"
     id="path2"
     style="stroke-width:34" />
  <path
     d="M 466,516.47189 V 870 M 796,387.22506 466,516.47189"
     id="path3"
     style="stroke-width:20;stroke-dasharray:none" />
  <path
     d="m 229.28805,526.66142 165.30236,62.64564 2.12154,115.72203 -165.33872,-64.62944 z"
     id="path4"
     style="stroke-width:5;stroke-dasharray:none" />
  <ellipse
     cx="449.83301"
     cy="498.41019"
     id="circle5"
     style="stroke-width:5.02356;stroke-dasharray:none"
     rx="15.074357"
     ry="11.450541"
     transform="matrix(0.93575688,0.3526458,-0.2216732,0.97512101,0,0)" />
  <path
     d="m 519.86395,324.34101 111.4358,39.02642"
     id="path6"
     style="stroke-width:10;stroke-dasharray:none" />
  <ellipse
     cx="598.87982"
     cy="275.93878"
     rx="56.422188"
     ry="18.951595"
     transform="matrix(0.94263977,0.33381171,-0.60813949,0.79383018,0,0)"
     id="ellipse6"
     style="stroke-width:5.12639;stroke-dasharray:none" />
  <path
     style="fill:#000000;stroke:#000000;stroke-width:5;stroke-linecap:round;stroke-miterlimit:11.7;stroke-dasharray:none;paint-order:markers stroke fill"
     d="M 171.04859,470.58824 461.58568,581.07417"
     id="path7" />
  <path
     style="fill:#000000;stroke:#000000;stroke-width:5;stroke-linecap:round;stroke-miterlimit:11.7;stroke-dasharray:none;paint-order:markers stroke fill"
     d="M 797.95396,450.9463 473.86189,581.89259"
     id="path8" />
</svg>
