<?xml version="1.0" encoding="UTF-8"?>
<svg width="64px" height="64px" viewBox="0 0 64 64" version="1.1" xmlns="http://www.w3.org/2000/svg" xmlns:xlink="http://www.w3.org/1999/xlink">
    <title>alarm_generic</title>
    <g id="alarm_generic" stroke="none" stroke-width="1" fill="none" fill-rule="evenodd">
        <path d="M35.4771605,10.1150064 L57.4312548,48.7239309 C57.791059,49.3566899 57.9802363,50.0720971 57.9802363,50.8000002 C57.9802363,53.119596 56.0998324,55 53.7802365,55 L10.2197635,55 C9.49186042,55 8.77645318,54.8108226 8.14369424,54.4510185 C6.12729249,53.3044371 5.42216377,50.7403327 6.56874515,48.7239309 L28.5228395,10.1150064 C28.878722,9.48914401 29.3969288,8.97093729 30.0227911,8.61505478 C31.9431738,7.52307245 34.3851782,8.19462365 35.4771605,10.1150064 Z M32,12.0922153 L10.0459056,50.7011398 C9.99130656,50.7971589 10.0248841,50.919259 10.1209031,50.973858 C10.1510345,50.9909916 10.1851015,51 10.2197635,51 L53.7802365,51 C53.8906934,51 53.9802363,50.910457 53.9802363,50.8000002 C53.9802363,50.7653382 53.9712279,50.7312712 53.9540944,50.7011398 L32,12.0922153 Z M32,42 C33.6568542,42 35,43.3431458 35,45 C35,46.6568542 33.6568542,48 32,48 C30.3431458,48 29,46.6568542 29,45 C29,43.3431458 30.3431458,42 32,42 Z M33.9459843,21 C34.4982691,21 34.9459843,21.4477153 34.9459843,22 L34.9456387,22.0262885 L34.0498653,38.0525588 C34.0219114,38.5836835 33.5831073,39 33.0512475,39 L30.9487525,39 C30.4168927,39 29.9780886,38.5836835 29.9501347,38.0525588 L29.0553978,22.0525588 C29.0263704,21.5010374 29.4499354,21.0304096 30.0014568,21.0013822 Z" id="Combined-Shape" fill="#000000" fill-rule="nonzero"></path>
    </g>
</svg>