<?xml version="1.0" ?>
<!-- Uploaded to: SVG Repo, www.svgrepo.com, Generator: SVG Repo Mixer Tools -->
<svg fill="#000000" width="800px" height="800px" viewBox="0 0 512 512" xmlns="http://www.w3.org/2000/svg">
<g id="Water_management">
<path d="M232.6,304l-40.29-60.46a19,19,0,0,0-31.55,0L120.47,304c-29.31,44,.43,103.89,53.25,105.82.93,0,1.87.05,2.81.05s1.89,0,2.82-.05C232.17,407.91,261.9,348,232.6,304Z"/>
<path d="M411.68,289.58a119.09,119.09,0,0,0-20.11-61.85L320.8,121.53a33,33,0,0,0-54.9,0l-68.7,103.1a36.26,36.26,0,0,1,9.26,9.5l3,4.55.62-1,70.77-106.2a15,15,0,0,1,24.95,0l70.76,106.2c20.84,31.27,22.9,69.92,5.52,103.39-17,32.84-49.12,53-85.81,53.92-2,.05-3.94.05-5.9,0a99.34,99.34,0,0,1-41-9.89,85.5,85.5,0,0,1-10.8,14.76A117.47,117.47,0,0,0,290,413c1.13,0,2.26,0,3.4,0s2.27,0,3.4,0c43.34-1.1,81.23-24.89,101.34-63.62A121.05,121.05,0,0,0,411.68,289.58Z"/>
<path d="M135.36,165.49c13.37,5.87,20.23,12.73,26.1,26.1a5.68,5.68,0,0,0,10.42,0c5.87-13.37,12.73-20.23,26.1-26.1a5.68,5.68,0,0,0,0-10.42c-13.37-5.87-20.23-12.73-26.1-26.09a5.68,5.68,0,0,0-10.42,0c-5.87,13.36-12.73,20.22-26.1,26.09A5.68,5.68,0,0,0,135.36,165.49Z"/>
<path d="M349.8,309.58a39.62,39.62,0,0,1-39.58,39.58v17a56.64,56.64,0,0,0,56.58-56.58Z"/>
</g>
</svg>